<svg width="181" height="32" viewBox="0 0 181 32" fill="none" xmlns="http://www.w3.org/2000/svg">
<g clip-path="url(#clip0_1048_3143)">
<path d="M28.5992 17.2802V10.6777V10.6612C28.5992 8.61953 27.5125 6.74249 25.7507 5.72165L17.1724 0.765631C15.4106 -0.25521 13.2207 -0.25521 11.4589 0.765631L2.84766 5.72165L15.7234 13.345L21.1405 8.5372V28.1637L25.7343 25.5293C27.496 24.5084 28.5827 22.6314 28.5827 20.5897V17.2802H28.5992Z" fill="url(#paint0_linear_1048_3143)"/>
<path d="M0 13.9694V20.572V20.5884C0 22.6301 1.0867 24.5071 2.84848 25.528L11.4268 30.484C13.1886 31.5049 15.3785 31.5049 17.1403 30.484L25.8997 25.4292L12.8593 17.9046L7.44226 22.7124V3.08594L2.84848 5.72037C1.0867 6.74121 0 8.61824 0 10.6599V13.9694Z" fill="url(#paint1_linear_1048_3143)"/>
<path d="M51.8885 20.8671H51.3879L47.1198 9.94258C46.7751 9.08898 45.8559 8.54727 44.7806 8.54727H42.1295C40.7014 8.54727 39.659 9.4255 39.659 10.632L39.6016 22.8369H43.3443L43.4017 10.7387H43.9024L48.0555 21.4252C48.392 22.287 49.2785 22.8369 50.3701 22.8369H55.623L55.6805 8.53906H51.9378L51.8885 20.8671Z" fill="#E10139"/>
<path d="M72.557 20.7147L63.1673 20.7229L63.1755 16.9227L72.122 16.9145C72.3682 16.9145 72.5652 16.7175 72.5652 16.4713V14.8297L63.1755 14.8379V10.5781L72.5406 10.5699C72.7868 10.5699 72.9838 10.3729 72.9838 10.1267V8.46875L60.4916 8.49337C59.3754 8.49337 58.727 9.04329 58.727 9.99539L58.7188 22.8159H73.0166V21.1661C73.0166 20.9199 72.8114 20.7147 72.557 20.7147Z" fill="#E10139"/>
<path d="M180.01 20.7139L170.62 20.7221L170.628 16.9219L179.575 16.9137C179.821 16.9137 180.018 16.7167 180.018 16.4705V14.8289L170.636 14.8372V10.5773L180.001 10.5691C180.248 10.5691 180.445 10.3722 180.445 10.1259V8.48438L167.953 8.49258C166.836 8.49258 166.188 9.0425 166.188 9.9946L166.18 22.8151H180.478V21.1653C180.469 20.9191 180.264 20.7139 180.01 20.7139Z" fill="#E10139"/>
<path d="M92.1406 11.0546H97.6398L97.6316 22.8245H102.08L102.088 11.0546H107.588L107.596 8.46094H92.1406V11.0546Z" fill="#E10139"/>
<path d="M125.536 13.9773V11.9254C125.536 11.3098 125.396 10.686 125.059 10.1607C124.354 9.06089 123.04 8.44531 121.506 8.44531C121.506 8.44531 121.506 8.44531 121.497 8.44531L109.555 8.45352L109.547 22.817H114.004L114.012 17.3671H118.042L120.759 21.8814C121.087 22.4231 121.67 22.817 122.293 22.817H125.979L122.655 17.2276C124.395 16.85 125.536 15.5696 125.536 13.9773ZM121.391 14.1004C121.391 14.7324 120.824 15.4301 120.036 15.4301L114.004 15.4383L114.012 10.5629L120.045 10.5547C120.43 10.5547 120.783 10.6696 121.029 10.8748C121.267 11.0718 121.399 11.3344 121.399 11.6381L121.391 14.1004Z" fill="#E10139"/>
<path d="M159.031 8.42188H159.023L149.132 8.43008C148.016 8.43008 147.368 8.98 147.368 9.9321L147.359 22.8264H159.014C162.002 22.8264 163.652 21.3408 163.652 18.8375L163.66 12.2959C163.66 11.1633 163.332 10.2604 162.675 9.60379C161.879 8.82405 160.656 8.42188 159.031 8.42188ZM159.154 18.78C159.154 19.847 158.202 20.6186 156.897 20.6186L151.816 20.6268L151.824 10.5395L156.913 10.5313C157.635 10.5313 158.259 10.7611 158.67 11.1715C158.99 11.4916 159.162 11.902 159.162 12.3616L159.154 18.78Z" fill="#E10139"/>
<path d="M138.389 8.44531H136.599H134.211C132.955 8.44531 132.159 8.95419 131.798 10.0048L127.415 22.8335H127.316H131.773L133.521 17.6954H136.304H139.086L140.835 22.8335H145.291L140.81 10.0048C140.432 8.95419 139.644 8.44531 138.389 8.44531ZM136.296 15.5696H134.236L135.91 10.8912C135.976 10.7189 136.09 10.6286 136.296 10.5957C136.501 10.6286 136.616 10.7189 136.681 10.883L138.356 15.5696H136.296Z" fill="#E10139"/>
<path d="M86.6986 8.46094L83.0954 12.9506L79.5005 8.47735H75.1914L80.8958 15.6919L75.1914 22.8245H79.6728L83.0954 18.4744L86.5263 22.8245H91.0077L85.2951 15.6919L91.0077 8.46094H86.6986Z" fill="#E10139"/>
</g>
<defs>
<linearGradient id="paint0_linear_1048_3143" x1="2.85424" y1="14.0791" x2="28.5999" y2="14.0791" gradientUnits="userSpaceOnUse">
<stop stop-color="#301942"/>
<stop offset="0.2606" stop-color="#6E103F"/>
<stop offset="0.5068" stop-color="#A2093C"/>
<stop offset="0.7198" stop-color="#C7043B"/>
<stop offset="0.8914" stop-color="#DE0139"/>
<stop offset="1" stop-color="#E60039"/>
</linearGradient>
<linearGradient id="paint1_linear_1048_3143" x1="17.8285" y1="32.0839" x2="4.87007" y2="9.98222" gradientUnits="userSpaceOnUse">
<stop stop-color="#301942"/>
<stop offset="0.2606" stop-color="#6E103F"/>
<stop offset="0.5068" stop-color="#A2093C"/>
<stop offset="0.7198" stop-color="#C7043B"/>
<stop offset="0.8914" stop-color="#DE0139"/>
<stop offset="1" stop-color="#E60039"/>
</linearGradient>
<clipPath id="clip0_1048_3143">
<rect width="180.478" height="31.2509" fill="white"/>
</clipPath>
</defs>
</svg>
